# xmcd
#
# Track frame offsets:
#	150
#	14581
#	29006
#	44961
#	60856
#	75614
#	92106
#	103822
#	117293
#	131305
#	145325
#	158054
#	173786
#	188852
#	201922
#	214088
#	227557
#	242261
#	255162
#	270187
#	283811
#	297002
#	310072
#	322497
#	335345
#
# Disc length: 4656
#
# Revision: 1
# Processed by: cddbd v1.5.1PL0 Copyright (c) Steve Scherf et al.
# Submitted via: WhereIsIt 3.51
# Normalized: r0:DSETVAR1
#
DISCID=68122e19
DTITLE=Various Artist - When The Sun Goes Down [CD 2) - The First Time I Met The Blues
DYEAR=1900
DGENRE=Blues
TTITLE0=Victoria Spivey - Telephoning the Blues
TTITLE1=Gus Cannon's Jug Stompers - Viola Lee Blues
TTITLE2=Genevieve Davis - Haven't Got a Dollar to Pay Your House Rent Man
TTITLE3=Ishman Bracey - Saturday Blues
TTITLE4=Jim Jackson - When I Woke Up This Morning She Was Gone
TTITLE5=Tommy Johnson - Canned Heat Blues
TTITLE6=Blind Willie McTell - Statesboro Blues
TTITLE7=Memphis Jug Band - Stealin', Stealin'
TTITLE8=Furry Lewis - Judge Harsh Blues
TTITLE9=Edna Winston - Rent Man Blues
TTITLE10=Harris and Harris - I Don't Care What You Say
TTITLE11=Lizzie Miles - I Hate a Man Like You
TTITLE12=Frank Stokes - Tain't Nobody's Business If I Do - Part 1
TTITLE13=Sippie Wallace - I'm a Mighty Tight Woman
TTITLE14=Jimmie Rodgers - Blue Yodel #9
TTITLE15=Sleepy John Estes - The Girl I Love, Got Long, Curly Hair
TTITLE16=McCoy and Johnson - Don't Want No Woman
TTITLE17=Memphis Jug Band - Cocaine Habit Blues
TTITLE18=Blind Willie Reynolds - Married Woman Blues
TTITLE19=Jimmie Davis - Red Nightgown Blues
TTITLE20=Mississippi Mathilda - Hard Working Woman
TTITLE21=Bo Carter - Doubled Up in a Knot
TTITLE22=Daddy Stovepipe and Mississippi Sarah - If You Want Me, Baby
TTITLE23=Little Brother Montgomery - The First Time I Met the Blues
TTITLE24=Mississippi Sheiks - Sales Tax
EXTD=
EXTT0=
EXTT1=
EXTT2=
EXTT3=
EXTT4=
EXTT5=
EXTT6=
EXTT7=
EXTT8=
EXTT9=
EXTT10=
EXTT11=
EXTT12=
EXTT13=
EXTT14=
EXTT15=
EXTT16=
EXTT17=
EXTT18=
EXTT19=
EXTT20=
EXTT21=
EXTT22=
EXTT23=
EXTT24=
PLAYORDER=
